<svg id="Layer_1" data-name="Layer 1" xmlns="http://www.w3.org/2000/svg" viewBox="0 0 29.05 9.9"><defs><style>.cls-1{isolation:isolate;}.cls-2{fill:#fff;}</style></defs><g class="cls-1"><path class="cls-2" d="M3.61.91h.95L7.11,7.75a1.71,1.71,0,0,0,.38.68A.73.73,0,0,0,8,8.59h.13v.5H5.22v-.5h.27a.72.72,0,0,0,.37-.06A.31.31,0,0,0,6,8.24a2.62,2.62,0,0,0-.16-.6L5.33,6.06h-3L1.73,7.83a1.23,1.23,0,0,0-.1.38.36.36,0,0,0,.06.2.37.37,0,0,0,.17.13.9.9,0,0,0,.34.05h.26v.5H0v-.5A1.42,1.42,0,0,0,.5,8.53a.68.68,0,0,0,.26-.22,3.11,3.11,0,0,0,.3-.63Zm-1,4.57H5.1L3.84,2Z"/><path class="cls-2" d="M8.74.91H13a5.24,5.24,0,0,1,1.82.25,2.1,2.1,0,0,1,.94.72A1.87,1.87,0,0,1,16.05,3a2,2,0,0,1-.32,1.14,2.12,2.12,0,0,1-.93.78,3.8,3.8,0,0,1-1.61.29l2.16,2.64a4,4,0,0,0,.35.4,1.27,1.27,0,0,0,.43.28,1.35,1.35,0,0,0,.5.09h.15v.5H14.92l-3-3.91H10.86V7.7a2.7,2.7,0,0,0,0,.53.48.48,0,0,0,.21.28,1.21,1.21,0,0,0,.56.08h.21v.5H8.74v-.5H9a1.38,1.38,0,0,0,.43,0,.49.49,0,0,0,.19-.14.57.57,0,0,0,.12-.26,4.93,4.93,0,0,0,0-.59V2.21a1.25,1.25,0,0,0-.07-.51.46.46,0,0,0-.2-.23,1,1,0,0,0-.43-.07H8.74Zm2.12.64V4.63h1.69a4.62,4.62,0,0,0,1.2-.11A1.41,1.41,0,0,0,14.53,4a1.54,1.54,0,0,0,.28-1,1.64,1.64,0,0,0-.2-.83,1.35,1.35,0,0,0-.56-.5A2.62,2.62,0,0,0,13,1.55Z"/><path class="cls-2" d="M17.28.91h3.13V1.4h-.24a1,1,0,0,0-.49.1.51.51,0,0,0-.23.27,2.29,2.29,0,0,0-.07.67V7.71a1.47,1.47,0,0,0,.08.56.48.48,0,0,0,.21.25,1.2,1.2,0,0,0,.5.07h.24v.5H17.28v-.5h.26A1,1,0,0,0,18,8.51a.43.43,0,0,0,.2-.22,1.53,1.53,0,0,0,.07-.58V2.32a1.65,1.65,0,0,0-.07-.61.42.42,0,0,0-.2-.23,1.14,1.14,0,0,0-.49-.08h-.26Z"/><path class="cls-2" d="M24.49.91h1L28,7.75a1.84,1.84,0,0,0,.38.68.76.76,0,0,0,.51.16H29v.5H26.1v-.5h.28a.77.77,0,0,0,.37-.06.33.33,0,0,0,.17-.28,2.9,2.9,0,0,0-.17-.6l-.54-1.58h-3l-.64,1.77a1.63,1.63,0,0,0-.1.38.36.36,0,0,0,.06.2.43.43,0,0,0,.17.13.94.94,0,0,0,.34.05h.26v.5H20.9v-.5a1.46,1.46,0,0,0,.49-.06.87.87,0,0,0,.26-.22,3.26,3.26,0,0,0,.29-.63Zm-1,4.57H26L24.72,2Z"/></g></svg>