<?xml version="1.0" encoding="utf-8"?>
<!-- Generator: Adobe Illustrator 24.1.1, SVG Export Plug-In . SVG Version: 6.00 Build 0)  -->
<svg version="1.1" id="Layer_1" xmlns="http://www.w3.org/2000/svg" xmlns:xlink="http://www.w3.org/1999/xlink" x="0px" y="0px"
	 viewBox="0 0 561.2 613.2" style="enable-background:new 0 0 561.2 613.2;" xml:space="preserve">
<style type="text/css">
	.st0{fill:#FFFFFF;}
</style>
<g>
	<g>
		<path class="st0" d="M300,552.8c-135,0-244.7-110.5-244.7-246.2S165.1,60.4,300,60.4c8.2,0,16.4,0.4,24.6,1.2
			c7.2,0.7,13.5,5.2,16.5,11.8c3,6.5,2.4,14.3-1.6,20.3c-23,34-35.2,73.7-35.2,114.9c0,105.6,78.7,193.4,183.2,203.8
			c7.2,0.7,13.5,5.2,16.5,11.8c3.1,6.5,2.4,14.3-1.6,20.3C456.6,512.4,381,552.8,300,552.8L300,552.8z M287.5,102.1
			C181,108.6,96.3,197.8,96.3,306.6c0,113,91.4,204.9,203.7,204.9c56.4,0,109.6-23.5,147.8-64.1c-46.2-11.8-88.1-37-120.8-73
			c-41.1-45.5-63.8-104.2-63.8-165.6C263.3,171.5,271.6,135.2,287.5,102.1L287.5,102.1z"/>
	</g>
</g>
</svg>
