<?xml version="1.0" encoding="utf-8"?>
<!-- Generator: Adobe Illustrator 24.1.1, SVG Export Plug-In . SVG Version: 6.00 Build 0)  -->
<svg version="1.1" id="Layer_1" xmlns="http://www.w3.org/2000/svg" xmlns:xlink="http://www.w3.org/1999/xlink" x="0px" y="0px"
	 viewBox="0 0 19.8 19.8" style="enable-background:new 0 0 19.8 19.8;" xml:space="preserve">
<style type="text/css">
	.st0{fill:#FFFFFF;}
</style>
<g>
	<g>
		<path class="st0" d="M9.9,4.6C7,4.6,4.6,7,4.6,9.9s2.4,5.3,5.3,5.3s5.3-2.4,5.3-5.3S12.8,4.6,9.9,4.6z M9.9,13.7
			c-2.1,0-3.8-1.7-3.8-3.8s1.7-3.8,3.8-3.8s3.8,1.7,3.8,3.8S12,13.7,9.9,13.7z M9.9,3c0.4,0,0.8-0.3,0.8-0.8V0.8
			c0-0.4-0.3-0.8-0.8-0.8S9.1,0.3,9.1,0.8v1.5C9.1,2.7,9.5,3,9.9,3z M9.9,16.7c-0.4,0-0.8,0.3-0.8,0.8V19c0,0.4,0.3,0.8,0.8,0.8
			c0.4,0,0.8-0.3,0.8-0.8v-1.5C10.6,17.1,10.3,16.7,9.9,16.7z M15.8,5l1.1-1c0.3-0.3,0.3-0.8,0-1.1s-0.8-0.3-1.1,0L14.7,4
			c-0.3,0.3-0.3,0.8,0,1.1C15,5.3,15.5,5.3,15.8,5z M4,14.7l-1.1,1.1c-0.3,0.3-0.3,0.8,0,1.1s0.8,0.3,1.1,0l1-1.1
			c0.3-0.3,0.3-0.8,0-1.1S4.3,14.4,4,14.7z M3,9.9c0-0.4-0.3-0.8-0.8-0.8H0.8C0.3,9.1,0,9.5,0,9.9s0.3,0.8,0.8,0.8h1.5
			C2.7,10.6,3,10.3,3,9.9z M19,9.1h-1.5c-0.4,0-0.8,0.3-0.8,0.8c0,0.4,0.3,0.8,0.8,0.8H19c0.4,0,0.8-0.3,0.8-0.8S19.4,9.1,19,9.1z
			 M4,5c0.3,0.3,0.7,0.3,1,0s0.3-0.7,0-1L4,2.9c-0.3-0.3-0.8-0.3-1.1,0S2.6,3.7,2.9,4L4,5z M15.8,14.7c-0.3-0.3-0.8-0.3-1.1,0
			s-0.3,0.8,0,1.1l1.1,1.1c0.3,0.3,0.8,0.3,1.1,0s0.3-0.8,0-1.1L15.8,14.7z"/>
	</g>
</g>
</svg>
